<?xml version="1.0" encoding="UTF-8" standalone="no"?>
<!-- Created with Inkscape (http://www.inkscape.org/) -->

<svg
   xmlns:dc="http://purl.org/dc/elements/1.1/"
   xmlns:cc="http://creativecommons.org/ns#"
   xmlns:rdf="http://www.w3.org/1999/02/22-rdf-syntax-ns#"
   xmlns:svg="http://www.w3.org/2000/svg"
   xmlns="http://www.w3.org/2000/svg"
   xmlns:sodipodi="http://sodipodi.sourceforge.net/DTD/sodipodi-0.dtd"
   xmlns:inkscape="http://www.inkscape.org/namespaces/inkscape"
   version="1.1"
   width="1000"
   height="328.021"
   id="svg2816"
   xml:space="preserve"
   inkscape:version="0.91 r13725"
   sodipodi:docname="FIFA.svg"><metadata
     id="metadata34"><rdf:RDF><cc:Work
         rdf:about=""><dc:format>image/svg+xml</dc:format><dc:type
           rdf:resource="http://purl.org/dc/dcmitype/StillImage" /><dc:title></dc:title></cc:Work></rdf:RDF></metadata><sodipodi:namedview
     pagecolor="#ffffff"
     bordercolor="#666666"
     borderopacity="1"
     objecttolerance="10"
     gridtolerance="10"
     guidetolerance="10"
     inkscape:pageopacity="0"
     inkscape:pageshadow="2"
     inkscape:window-width="1366"
     inkscape:window-height="705"
     id="namedview32"
     showgrid="false"
     fit-margin-top="0"
     fit-margin-left="0"
     fit-margin-right="0"
     fit-margin-bottom="0"
     inkscape:zoom="0.5"
     inkscape:cx="688.1766"
     inkscape:cy="-33.345624"
     inkscape:window-x="-8"
     inkscape:window-y="-8"
     inkscape:window-maximized="1"
     inkscape:current-layer="svg2816" /><defs
     id="defs2820"><linearGradient
       x1="0"
       y1="0"
       x2="1"
       y2="0"
       id="linearGradient2838"
       gradientUnits="userSpaceOnUse"
       gradientTransform="matrix(0,-556,-556,0,460.05,606.639)"
       spreadMethod="pad"><stop
         id="stop2840"
         style="stop-color:#0095d5;stop-opacity:1"
         offset="0" /><stop
         id="stop2842"
         style="stop-color:#003768;stop-opacity:1"
         offset="1" /></linearGradient><linearGradient
       x1="0"
       y1="0"
       x2="1"
       y2="0"
       id="linearGradient2930"
       gradientUnits="userSpaceOnUse"
       gradientTransform="matrix(0,612.126,612.126,0,450.816,12.874)"
       spreadMethod="pad"><stop
         id="stop2932"
         style="stop-color:#003768;stop-opacity:1"
         offset="0" /><stop
         id="stop2934"
         style="stop-color:#0095d5;stop-opacity:1"
         offset="1" /></linearGradient></defs><g
     id="g4770"><path
       d="m 1.29236e-4,2.9584e-4 0,327.98990416 103.596810764,0 0,-118.42712 71.9824,0 27.98376,-71.6901 -99.96616,0 0,-66.551802 121.67318,0 26.53765,-71.32088216 -251.807640764,0"
       id="path2882"
       style="fill:#093697;fill-opacity:1;fill-rule:evenodd;stroke:none"
       inkscape:connector-curvature="0" /><path
       d="M 283.48371,2.9584e-4 283.2991,327.9902 l 102.39685,0 0,-327.98990416 -102.21224,0"
       id="path2886"
       style="fill:#093697;fill-opacity:1;fill-rule:evenodd;stroke:none"
       inkscape:connector-curvature="0" /><path
       d="m 787.52974,220.85504 39.44494,-136.565029 40.86028,136.565029 -80.30522,0 z M 881.80376,2.97448e-4 l -106.3198,0 L 657.59528,328.02097 l 98.96618,0 12.73807,-44.10633 115.36568,0 13.33805,44.10633 101.99684,0 L 881.80376,2.97448e-4"
       id="path2890"
       style="fill:#093697;fill-opacity:1;fill-rule:evenodd;stroke:none"
       inkscape:connector-curvature="0" /><path
       d="m 456.40147,2.9584e-4 0,327.98990416 103.53528,0 0,-118.42712 71.90548,0 28.18374,-71.6901 -100.08922,0 0,-66.551802 121.71933,0 26.73764,-71.32088216 -251.99225,0"
       id="path2894"
       style="fill:#093697;fill-opacity:1;fill-rule:evenodd;stroke:none"
       inkscape:connector-curvature="0" /><g
       style="fill:#093697;fill-opacity:1"
       id="g2896"
       transform="matrix(15.384142,0,0,-15.384142,978.27772,34.968451)" /></g></svg>